<?xml version="1.0" encoding="UTF-8" standalone="no"?>
<!-- Created with Inkscape (http://www.inkscape.org/) -->

<svg
   xmlns:dc="http://purl.org/dc/elements/1.1/"
   xmlns:cc="http://creativecommons.org/ns#"
   xmlns:rdf="http://www.w3.org/1999/02/22-rdf-syntax-ns#"
   xmlns:svg="http://www.w3.org/2000/svg"
   xmlns="http://www.w3.org/2000/svg"
   xmlns:sodipodi="http://sodipodi.sourceforge.net/DTD/sodipodi-0.dtd"
   xmlns:inkscape="http://www.inkscape.org/namespaces/inkscape"
   width="8"
   height="8"
   viewBox="0 0 2.1166666 2.1166666"
   version="1.1"
   id="svg866"
   inkscape:version="0.92.4 (5da689c313, 2019-01-14)"
   sodipodi:docname="logo-monochromatic.svg">
  <defs
     id="defs860">
    <marker
       inkscape:stockid="Arrow1Lstart"
       orient="auto"
       refY="0.0"
       refX="0.0"
       id="Arrow1Lstart"
       style="overflow:visible"
       inkscape:isstock="true">
      <path
         id="path1549"
         d="M 0.0,0.0 L 5.0,-5.0 L -12.5,0.0 L 5.0,5.0 L 0.0,0.0 z "
         style="fill-rule:evenodd;stroke:#000000;stroke-width:1pt;stroke-opacity:1;fill:#000000;fill-opacity:1"
         transform="scale(0.8) translate(12.5,0)" />
    </marker>
  </defs>
  <sodipodi:namedview
     id="base"
     pagecolor="#ffffff"
     bordercolor="#666666"
     borderopacity="1.0"
     inkscape:pageopacity="0.0"
     inkscape:pageshadow="2"
     inkscape:zoom="90.509668"
     inkscape:cx="5.3373884"
     inkscape:cy="4.3607306"
     inkscape:document-units="px"
     inkscape:current-layer="layer1"
     showgrid="false"
     units="px"
     inkscape:pagecheckerboard="true"
     inkscape:window-width="1920"
     inkscape:window-height="1017"
     inkscape:window-x="-8"
     inkscape:window-y="-8"
     inkscape:window-maximized="1"
     inkscape:snap-page="true"
     inkscape:snap-bbox="true"
     inkscape:bbox-paths="true"
     inkscape:bbox-nodes="true"
     inkscape:object-paths="false"
     inkscape:snap-nodes="false"
     inkscape:snap-others="false"
     inkscape:snap-bbox-edge-midpoints="true"
     inkscape:snap-bbox-midpoints="true" />
  <metadata
     id="metadata863">
    <rdf:RDF>
      <cc:Work
         rdf:about="">
        <dc:format>image/svg+xml</dc:format>
        <dc:type
           rdf:resource="http://purl.org/dc/dcmitype/StillImage" />
        <dc:title></dc:title>
      </cc:Work>
    </rdf:RDF>
  </metadata>
  <g
     inkscape:label="Layer 1"
     inkscape:groupmode="layer"
     id="layer1"
     transform="translate(0,-294.88333)"
     style="display:inline">
    <path
       style="fill:#ffffff;fill-opacity:1;stroke-width:1.7958889;stroke-miterlimit:4;stroke-dasharray:none"
       d="M 2.5 0 C 1.669 0 1 0.66899999 1 1.5 L 1 6.5 C 1 7.331 1.669 8 2.5 8 L 5.5 8 C 6.331 8 7 7.331 7 6.5 L 7 1.5 C 7 0.66899999 6.331 0 5.5 0 L 2.5 0 z M 3 1 L 5 1 C 5.554 1 6 1.446 6 2 L 6 6 C 6 6.554 5.554 7 5 7 L 3 7 C 2.446 7 2 6.554 2 6 L 2 2 C 2 1.446 2.446 1 3 1 z "
       transform="matrix(0.26458333,0,0,0.26458333,0,294.88333)"
       id="rect1411" />
    <rect
       style="fill:#ffffff;fill-opacity:1;stroke:none;stroke-width:0;stroke-linecap:butt;stroke-linejoin:miter;stroke-miterlimit:4;stroke-dasharray:none;stroke-dashoffset:0;stroke-opacity:1"
       id="rect2229"
       width="0.15875"
       height="0.15875"
       x="1.3758333"
       y="296.31207"
       ry="0.079374999" />
    <rect
       style="display:inline;fill:#ffffff;fill-opacity:1;stroke:none;stroke-width:0;stroke-linecap:butt;stroke-linejoin:miter;stroke-miterlimit:4;stroke-dasharray:none;stroke-dashoffset:0;stroke-opacity:1"
       id="rect2229-9"
       width="0.15875"
       height="0.15875"
       x="1.1377083"
       y="296.31207"
       ry="0.079374999" />
    <rect
       style="display:inline;fill:#ffffff;fill-opacity:1;stroke:none;stroke-width:0;stroke-linecap:butt;stroke-linejoin:miter;stroke-miterlimit:4;stroke-dasharray:none;stroke-dashoffset:0;stroke-opacity:1"
       id="rect2229-9-8"
       width="0.15875"
       height="0.15875"
       x="0.89958328"
       y="296.31207"
       ry="0.079374999" />
    <path
       style="display:inline;fill:none;stroke:#ffffff;stroke-width:0.10535217;stroke-linecap:butt;stroke-linejoin:miter;stroke-miterlimit:4;stroke-dasharray:none;stroke-dashoffset:0;stroke-opacity:1;fill-opacity:1"
       d="m 0.75756082,295.99234 c 0.1896519,0.15941 0.2332234,-0.0272 0.27955208,0.0158 0.1915309,0.17785 0.1458543,-0.0518 0.2643094,0.002 0.194196,0.0881 0.055286,-0.0158 0.2860776,-0.0158"
       id="path1493"
       inkscape:connector-curvature="0"
       sodipodi:nodetypes="cssc" />
  </g>
</svg>
